<?xml version="1.0" encoding="utf-8"?>
<!-- Generator: Adobe Illustrator 23.0.5, SVG Export Plug-In . SVG Version: 6.00 Build 0)  -->
<svg version="1.1" id="Capa_1" xmlns="http://www.w3.org/2000/svg" xmlns:xlink="http://www.w3.org/1999/xlink" x="0px" y="0px"
	 viewBox="0 0 497.5 66.67" style="enable-background:new 0 0 497.5 66.67;" xml:space="preserve">
<style type="text/css">
	.st0{fill:none;stroke:#72BA63;}
</style>
<g className='bienvenida'>
	<path class="st0" d="M43.39,36.93c0,3.32-1.13,5.72-3.38,7.19c-1.54,1-3.53,1.5-5.97,1.5c-0.94,0-2.24-0.02-3.9-0.07
		c-1.66-0.05-2.96-0.07-3.9-0.07c-2.04,0-3.79,0.05-5.26,0.14c0.09-4.42,0.14-9.79,0.14-16.12c0-6.33-0.05-11.83-0.14-16.5
		c1.32,0,2.88,0,4.7,0c0.94,0,2.24,0,3.9,0c1.66,0,2.96,0,3.9,0c2.32,0,4.2,0.45,5.64,1.36c2.22,1.41,3.34,3.73,3.34,6.96
		c0,3.2-1.14,5.45-3.43,6.77c-0.35,0.19-0.89,0.38-1.65,0.56c-0.44,0.09-0.66,0.19-0.66,0.28c0,0.09,0.22,0.18,0.66,0.26
		s1.11,0.27,2.02,0.59C42.06,31.1,43.39,33.48,43.39,36.93z M35.4,22.27c0-2.66-1.38-4-4.14-4h-2.49c-0.6,0-0.91,0.33-0.94,0.99
		c-0.06,1.22-0.09,3.09-0.09,5.59v0.89c0,0.5,0.27,0.75,0.8,0.75h2.54C33.96,26.46,35.4,25.05,35.4,22.27z M36.1,36.22
		c0-3.07-1.59-4.62-4.77-4.65c-0.06,0-0.51-0.02-1.35-0.05c-0.78,0-1.26,0-1.45,0c-0.53,0-0.79,0.28-0.79,0.85v0.8
		c0,1.76,0.05,3.89,0.14,6.39c0.03,0.69,0.45,1.03,1.26,1.03h2.43C34.59,40.6,36.1,39.14,36.1,36.22z"/>
	<path class="st0" d="M55.33,18.55c-0.96-0.09-2.04-0.14-3.25-0.14c-1.11,0-2.32,0.05-3.62,0.14c0.09-0.8,0.14-1.82,0.14-3.06
		s-0.05-2.27-0.14-3.1c1.27,0,2.47,0,3.62,0c1.17,0,2.26,0,3.25,0c-0.13,1.11-0.19,2.15-0.19,3.1
		C55.14,16.39,55.2,17.41,55.33,18.55z M55.33,45.67c-1.25-0.19-2.33-0.28-3.24-0.28c-1.07,0-2.27,0.09-3.62,0.28
		c0.09-3.01,0.14-6.99,0.14-11.94c0-5.42-0.05-9.31-0.14-11.66c1.35,0.19,2.52,0.28,3.53,0.28c1.03,0,2.15-0.09,3.34-0.28
		c-0.13,4.45-0.19,8.4-0.19,11.84C55.14,37.77,55.2,41.69,55.33,45.67z"/>
	<path class="st0" d="M80.66,38.53c-0.25,2.1-1.13,3.89-2.63,5.36c-1.63,1.57-4.01,2.35-7.14,2.35c-3.57,0-6.28-1.1-8.13-3.29
		c-1.69-2-2.54-4.86-2.54-8.55c0-3.95,0.92-7.07,2.77-9.35c1.88-2.41,4.53-3.62,7.94-3.62c3.26,0,5.73,1.16,7.43,3.48
		c1.44,2.01,2.16,4.62,2.16,7.85c0,0.91-0.05,1.75-0.14,2.54C76.43,35.1,73.94,35,72.9,35c-0.56,0-1.52,0-2.87,0
		c-1.35,0.03-2.27,0.05-2.77,0.05c-0.38,0-0.56,0.25-0.56,0.75c0,1.54,0.34,2.84,1.03,3.9c0.75,1.16,1.82,1.74,3.2,1.74
		c1.1,0,1.99-0.32,2.68-0.96c0.69-0.64,1.08-1.43,1.17-2.37C76.47,38.39,78.43,38.53,80.66,38.53z M74.31,30.25
		c0-1.32-0.34-2.36-1.03-3.13c-0.69-0.77-1.58-1.15-2.68-1.15c-1.19,0-2.17,0.45-2.94,1.36c-0.77,0.91-1.15,2.01-1.15,3.29
		c0,0.53,0.16,0.8,0.47,0.8c2.44,0,4.62-0.08,6.53-0.24C74.05,31.16,74.31,30.85,74.31,30.25z"/>
	<path class="st0" d="M105.43,45.67c-1.11-0.19-2.19-0.28-3.25-0.28c-0.99,0-2.16,0.09-3.52,0.28c0-2.98,0-5.75,0-8.32
		c0-3.76-0.02-6.33-0.05-7.71c-0.03-1.97-0.83-2.96-2.39-2.96c-1.29,0-2.27,0.56-2.94,1.69c-0.37,0.6-0.57,1.46-0.6,2.58
		c-0.06,2.44-0.09,3.98-0.09,4.61c0,1.22,0,3.02,0,5.41s0,3.95,0,4.7c-0.87-0.19-1.93-0.28-3.2-0.28c-1.21,0-2.39,0.09-3.57,0.28
		c0-2.57,0-4.95,0-7.14c0-4.76-0.05-8.95-0.14-12.55c-0.03-1.44-0.2-2.74-0.52-3.9c1.45,0.16,2.66,0.23,3.62,0.23
		c1.24,0,2.35-0.08,3.34-0.23c0.09,0.44,0.14,0.97,0.14,1.57c0,0.22,0,0.54,0,0.95s0,0.73,0,0.95c0,0.19,0.06,0.29,0.19,0.29
		c0.03,0,0.14-0.17,0.33-0.52c0.06-0.19,0.19-0.49,0.38-0.89c1.28-1.88,3.31-2.82,6.09-2.82c1.97,0,3.49,0.59,4.57,1.76
		c1.08,1.17,1.62,2.78,1.62,4.82v0.33c0,0.66,0,1.94,0,3.85c0,1.94,0,3.46,0,4.56C105.43,41.16,105.43,44.07,105.43,45.67z"/>
	<path class="st0" d="M130.34,22.08c-1.82,5.26-4.25,13.13-7.29,23.59c-0.75-0.09-1.85-0.14-3.29-0.14c-1.47,0-2.63,0.05-3.48,0.14
		c-1.66-6.58-4.01-14.44-7.05-23.59c1.6,0.13,2.87,0.19,3.81,0.19c1.28,0,2.33-0.06,3.15-0.19c0.72,2.86,1.82,7.06,3.29,12.59
		c0.16,0.54,0.3,1.34,0.42,2.4c0.03,0.22,0.13,0.33,0.28,0.33c0.09,0,0.16-0.13,0.19-0.38c0.09-0.57,0.24-1.33,0.42-2.31
		c0.66-2.7,1.68-6.91,3.05-12.63c0.81,0.13,1.9,0.19,3.24,0.19C128.16,22.27,129.24,22.2,130.34,22.08z"/>
	<path class="st0" d="M152.85,38.53c-0.25,2.1-1.13,3.89-2.63,5.36c-1.63,1.57-4.01,2.35-7.14,2.35c-3.57,0-6.28-1.1-8.13-3.29
		c-1.69-2-2.54-4.86-2.54-8.55c0-3.95,0.92-7.07,2.77-9.35c1.88-2.41,4.53-3.62,7.94-3.62c3.26,0,5.73,1.16,7.43,3.48
		c1.44,2.01,2.16,4.62,2.16,7.85c0,0.91-0.05,1.75-0.14,2.54c-3.95-0.19-6.44-0.28-7.47-0.28c-0.56,0-1.52,0-2.87,0
		c-1.35,0.03-2.27,0.05-2.77,0.05c-0.38,0-0.56,0.25-0.56,0.75c0,1.54,0.34,2.84,1.03,3.9c0.75,1.16,1.82,1.74,3.2,1.74
		c1.1,0,1.99-0.32,2.68-0.96c0.69-0.64,1.08-1.43,1.17-2.37C148.67,38.39,150.62,38.53,152.85,38.53z M146.5,30.25
		c0-1.32-0.35-2.36-1.03-3.13c-0.69-0.77-1.58-1.15-2.68-1.15c-1.19,0-2.17,0.45-2.94,1.36c-0.77,0.91-1.15,2.01-1.15,3.29
		c0,0.53,0.16,0.8,0.47,0.8c2.44,0,4.62-0.08,6.53-0.24C146.24,31.16,146.5,30.85,146.5,30.25z"/>
	<path class="st0" d="M177.62,45.67c-1.11-0.19-2.19-0.28-3.25-0.28c-0.99,0-2.16,0.09-3.52,0.28c0-2.98,0-5.75,0-8.32
		c0-3.76-0.02-6.33-0.05-7.71c-0.03-1.97-0.83-2.96-2.39-2.96c-1.29,0-2.27,0.56-2.94,1.69c-0.37,0.6-0.57,1.46-0.6,2.58
		c-0.06,2.44-0.09,3.98-0.09,4.61c0,1.22,0,3.02,0,5.41s0,3.95,0,4.7c-0.87-0.19-1.93-0.28-3.2-0.28c-1.21,0-2.39,0.09-3.57,0.28
		c0-2.57,0-4.95,0-7.14c0-4.76-0.05-8.95-0.14-12.55c-0.03-1.44-0.2-2.74-0.52-3.9c1.45,0.16,2.66,0.23,3.62,0.23
		c1.24,0,2.35-0.08,3.34-0.23c0.09,0.44,0.14,0.97,0.14,1.57c0,0.22,0,0.54,0,0.95s0,0.73,0,0.95c0,0.19,0.06,0.29,0.19,0.29
		c0.03,0,0.14-0.17,0.33-0.52c0.06-0.19,0.19-0.49,0.38-0.89c1.28-1.88,3.31-2.82,6.09-2.82c1.97,0,3.49,0.59,4.57,1.76
		c1.08,1.17,1.62,2.78,1.62,4.82v0.33c0,0.66,0,1.94,0,3.85c0,1.94,0,3.46,0,4.56C177.62,41.16,177.62,44.07,177.62,45.67z"/>
	<path class="st0" d="M190.59,18.55c-0.96-0.09-2.04-0.14-3.25-0.14c-1.11,0-2.32,0.05-3.62,0.14c0.09-0.8,0.14-1.82,0.14-3.06
		s-0.05-2.27-0.14-3.1c1.27,0,2.47,0,3.62,0c1.17,0,2.26,0,3.25,0c-0.13,1.11-0.19,2.15-0.19,3.1
		C190.4,16.39,190.46,17.41,190.59,18.55z M190.59,45.67c-1.25-0.19-2.33-0.28-3.24-0.28c-1.07,0-2.27,0.09-3.62,0.28
		c0.09-3.01,0.14-6.99,0.14-11.94c0-5.42-0.05-9.31-0.14-11.66c1.35,0.19,2.52,0.28,3.53,0.28c1.03,0,2.15-0.09,3.34-0.28
		c-0.13,4.45-0.19,8.4-0.19,11.84C190.4,37.77,190.46,41.69,190.59,45.67z"/>
	<path class="st0" d="M216.72,45.67c-0.69-0.09-1.44-0.14-2.26-0.14c-1.54,0-2.96,0.09-4.28,0.28c-0.06-0.63-0.11-1.43-0.14-2.4
		c0-0.41-0.06-0.61-0.19-0.61c-0.09,0-0.2,0.12-0.33,0.35c-0.13,0.23-0.35,0.56-0.66,1c-1.25,1.2-2.98,1.81-5.17,1.81
		c-2.63,0-4.64-1.05-6.02-3.14c-1.29-1.97-1.93-4.74-1.93-8.3c0-8.57,2.8-12.85,8.41-12.85c2.76,0,4.48,0.74,5.17,2.21
		c0.19,0.38,0.33,0.56,0.42,0.56s0.14-0.11,0.14-0.33c-0.03-0.57-0.05-0.91-0.05-1.04c-0.03-0.28-0.05-0.85-0.05-1.7
		c0-2.33-0.05-5.36-0.14-9.11c0.94,0.13,2.12,0.19,3.52,0.19c1.19,0,2.3-0.06,3.34-0.19c-0.09,3.98-0.16,7.97-0.19,11.99v7.61
		C216.34,36.3,216.47,40.91,216.72,45.67z M209.91,33.17c0-1.15-0.03-2.29-0.09-3.41c-0.03-0.75-0.25-1.42-0.66-2.01
		c-0.66-0.97-1.6-1.45-2.82-1.45c-2.44,0-3.67,2.49-3.67,7.47c0,4.95,1.13,7.43,3.38,7.43c1.41,0,2.44-0.59,3.1-1.77
		c0.34-0.62,0.56-1.45,0.66-2.48C209.87,36.27,209.91,35.01,209.91,33.17z"/>
	<path class="st0" d="M242.38,33.78c0,8.3-3.37,12.46-10.11,12.46c-7.05,0-10.57-4.1-10.57-12.31c0-3.88,0.83-6.89,2.49-9.02
		c1.79-2.29,4.4-3.43,7.85-3.43c3.38,0,5.95,1.07,7.71,3.22C241.5,26.83,242.38,29.86,242.38,33.78z M235.61,33.87
		c0-2.9-0.27-4.92-0.81-6.05c-0.54-1.13-1.46-1.7-2.76-1.7c-1.24,0-2.13,0.55-2.67,1.66c-0.6,1.23-0.91,3.4-0.91,6.52
		c0,2.62,0.28,4.48,0.83,5.6c0.55,1.12,1.47,1.68,2.74,1.68C234.42,41.58,235.61,39.01,235.61,33.87z"/>
	<path class="st0" d="M279.23,45.67c-1.38-0.09-2.18-0.14-2.4-0.14c-1.75,0-3.27,0.14-4.56,0.42c-0.22-0.86-0.33-1.61-0.33-2.24
		c0-0.51-0.06-0.76-0.19-0.76l-0.61,0.85c-1.13,1.57-2.91,2.35-5.36,2.35c-2.22,0-3.97-0.63-5.24-1.88c-1.27-1.25-1.9-2.98-1.9-5.17
		c0-3.01,1.35-5.09,4.04-6.25c1.53-0.69,4.17-1.17,7.9-1.46c0.75-0.06,1.13-0.7,1.13-1.93v-0.56c0-2.07-0.97-3.1-2.91-3.1
		c-2.16,0-3.24,1.11-3.24,3.34c-0.63-0.09-1.32-0.14-2.07-0.14c-1.16,0-2.41,0.14-3.76,0.42c0-0.16-0.02-0.36-0.05-0.61
		c0-0.25,0-0.41,0-0.47c0-2.22,0.85-3.92,2.54-5.1c1.69-1.17,3.98-1.76,6.86-1.76c2.57,0,4.68,0.49,6.34,1.46
		c1.82,1.07,2.79,2.58,2.91,4.56c0.09,1.66,0.14,3.56,0.14,5.69c0,2.44,0.01,4.59,0.05,6.44C278.55,42.02,278.79,44.04,279.23,45.67
		z M271.85,34.72c0-0.19-0.09-0.28-0.28-0.28c0.13,0-0.36,0.06-1.46,0.19c-0.94,0.09-1.66,0.22-2.16,0.38
		c-1.82,0.53-2.73,1.74-2.73,3.62c0,0.88,0.27,1.57,0.82,2.09c0.54,0.52,1.24,0.78,2.08,0.78c2.05,0,3.2-0.91,3.45-2.73
		c0.12-0.94,0.19-1.97,0.19-3.1c0-0.06,0.03-0.22,0.09-0.47C271.85,34.94,271.85,34.78,271.85,34.72z"/>
	<path class="st0" d="M319.04,36.32c0,3.13-1.11,5.59-3.34,7.38c-2.1,1.69-4.89,2.54-8.37,2.54c-7.58,0-11.37-3.79-11.37-11.37
		v-0.28c0.91,0.16,1.98,0.24,3.21,0.24c1.35,0,2.5-0.09,3.44-0.28c0.03,4.23,1.81,6.34,5.33,6.34c2.89,0,4.34-1.19,4.34-3.57
		c0-1.35-0.61-2.48-1.84-3.38c-0.91-0.66-2.42-1.39-4.53-2.21c-2.36-0.88-3.98-1.57-4.86-2.07c-3.05-1.79-4.57-4.42-4.57-7.9
		c0-2.54,0.94-4.7,2.82-6.49c2.04-1.94,4.76-2.91,8.18-2.91c3.13,0,5.69,0.78,7.66,2.35c2.1,1.66,3.15,3.9,3.15,6.72
		c0,0.56-0.03,1.08-0.09,1.55c-0.75-0.19-1.69-0.28-2.82-0.28c-1.41,0-2.6,0.13-3.57,0.38c-0.16-3.54-1.63-5.31-4.42-5.31
		c-2.76,0-4.14,1.21-4.14,3.62c0,1.38,1.25,2.62,3.76,3.71c1.72,0.72,3.45,1.46,5.17,2.21c2.1,0.97,3.65,1.99,4.65,3.06
		C318.3,31.92,319.04,33.91,319.04,36.32z"/>
	<path class="st0" d="M343.62,45.67c-1.38-0.09-2.18-0.14-2.4-0.14c-1.75,0-3.27,0.14-4.56,0.42c-0.22-0.86-0.33-1.61-0.33-2.24
		c0-0.51-0.06-0.76-0.19-0.76l-0.61,0.85c-1.13,1.57-2.91,2.35-5.36,2.35c-2.22,0-3.97-0.63-5.24-1.88c-1.27-1.25-1.9-2.98-1.9-5.17
		c0-3.01,1.35-5.09,4.04-6.25c1.53-0.69,4.17-1.17,7.9-1.46c0.75-0.06,1.13-0.7,1.13-1.93v-0.56c0-2.07-0.97-3.1-2.91-3.1
		c-2.16,0-3.24,1.11-3.24,3.34c-0.63-0.09-1.32-0.14-2.07-0.14c-1.16,0-2.41,0.14-3.76,0.42c0-0.16-0.02-0.36-0.05-0.61
		c0-0.25,0-0.41,0-0.47c0-2.22,0.85-3.92,2.54-5.1c1.69-1.17,3.98-1.76,6.86-1.76c2.57,0,4.68,0.49,6.34,1.46
		c1.82,1.07,2.79,2.58,2.91,4.56c0.09,1.66,0.14,3.56,0.14,5.69c0,2.44,0.01,4.59,0.05,6.44C342.94,42.02,343.18,44.04,343.62,45.67
		z M336.24,34.72c0-0.19-0.09-0.28-0.28-0.28c0.13,0-0.36,0.06-1.46,0.19c-0.94,0.09-1.66,0.22-2.16,0.38
		c-1.82,0.53-2.73,1.74-2.73,3.62c0,0.88,0.27,1.57,0.82,2.09c0.54,0.52,1.24,0.78,2.08,0.78c2.05,0,3.2-0.91,3.45-2.73
		c0.12-0.94,0.19-1.97,0.19-3.1c0-0.06,0.03-0.22,0.09-0.47C336.24,34.94,336.24,34.78,336.24,34.72z"/>
	<path class="st0" d="M369.94,33.19c0,8.6-2.85,12.9-8.55,12.9c-2.19,0-3.81-0.61-4.84-1.83l-0.33-0.56
		c-0.19-0.28-0.33-0.42-0.42-0.42s-0.14,0.05-0.14,0.14c0,0.06,0.04,0.46,0.12,1.2c0.08,0.74,0.12,1.42,0.12,2.04l0.14,7.75
		c-0.88-0.16-1.93-0.23-3.15-0.23c-1.19,0-2.44,0.08-3.76,0.23c0.09-2.41,0.14-6.6,0.14-12.55c0-5.45-0.05-10.42-0.14-14.9
		c-0.03-2-0.22-3.63-0.56-4.89c2.3,0.09,3.41,0.14,3.31,0.14c0.79,0,2.02-0.05,3.69-0.14c0.06,0.31,0.09,0.72,0.09,1.25
		c0,0.15,0,0.38,0,0.69s0,0.54,0,0.69c0,0.19,0.05,0.28,0.14,0.28c0.03,0,0.25-0.26,0.65-0.79c1.25-1.64,3.08-2.46,5.51-2.46
		C367.28,21.75,369.94,25.56,369.94,33.19z M363.03,33.94c0-2.7-0.26-4.63-0.78-5.8c-0.52-1.16-1.39-1.75-2.61-1.75
		c-1.03,0-1.94,0.44-2.73,1.3c-0.53,0.59-0.83,1.35-0.89,2.28c-0.16,2.79-0.24,5.01-0.24,6.66c0-0.34,0.03,0.33,0.09,2
		c0.03,0.5,0.19,0.93,0.47,1.3c0.75,0.99,1.74,1.49,2.96,1.49c1.38,0,2.35-0.62,2.91-1.86C362.76,38.43,363.03,36.55,363.03,33.94z"
		/>
	<path class="st0" d="M395.97,33.19c0,8.6-2.85,12.9-8.55,12.9c-2.19,0-3.81-0.61-4.84-1.83l-0.33-0.56
		c-0.19-0.28-0.33-0.42-0.42-0.42s-0.14,0.05-0.14,0.14c0,0.06,0.04,0.46,0.12,1.2c0.08,0.74,0.12,1.42,0.12,2.04l0.14,7.75
		c-0.88-0.16-1.93-0.23-3.15-0.23c-1.19,0-2.44,0.08-3.76,0.23c0.09-2.41,0.14-6.6,0.14-12.55c0-5.45-0.05-10.42-0.14-14.9
		c-0.03-2-0.22-3.63-0.56-4.89c2.3,0.09,3.41,0.14,3.31,0.14c0.79,0,2.02-0.05,3.69-0.14c0.06,0.31,0.09,0.72,0.09,1.25
		c0,0.15,0,0.38,0,0.69s0,0.54,0,0.69c0,0.19,0.05,0.28,0.14,0.28c0.03,0,0.25-0.26,0.65-0.79c1.25-1.64,3.08-2.46,5.51-2.46
		C393.31,21.75,395.97,25.56,395.97,33.19z M389.07,33.94c0-2.7-0.26-4.63-0.78-5.8c-0.52-1.16-1.39-1.75-2.61-1.75
		c-1.03,0-1.94,0.44-2.73,1.3c-0.53,0.59-0.83,1.35-0.89,2.28c-0.16,2.79-0.24,5.01-0.24,6.66c0-0.34,0.03,0.33,0.09,2
		c0.03,0.5,0.19,0.93,0.47,1.3c0.75,0.99,1.74,1.49,2.96,1.49c1.38,0,2.35-0.62,2.91-1.86C388.8,38.43,389.07,36.55,389.07,33.94z"
		/>
	<path class="st0" d="M420.84,45.67c-1.35-0.19-2.53-0.28-3.54-0.28s-2.09,0.09-3.22,0.28c0-1.82,0-4.61,0-8.37
		c0-3.29-0.02-5.66-0.05-7.1c-0.06-2.32-0.88-3.48-2.46-3.48c-1.17,0-2.08,0.45-2.75,1.34c-0.66,0.89-0.99,2.03-0.99,3.41
		c0-0.38,0.06,4.36,0.19,14.19c-1.13-0.19-2.21-0.28-3.24-0.28c-0.94,0-2.15,0.09-3.62,0.28c0.12-4.95,0.19-10.7,0.19-17.25
		c0-6.64-0.06-12.02-0.19-16.12c1.45,0.09,2.62,0.14,3.5,0.14c0.82,0,1.94-0.05,3.36-0.14l-0.16,9.12c0,0.66-0.02,1.35-0.06,2.07
		c-0.07,0.38-0.11,1-0.11,1.88c0,0.13,0.06,0.19,0.19,0.19c0.09,0,0.24-0.2,0.42-0.61c0.31-0.72,0.83-1.35,1.55-1.88
		c1.29-0.97,2.9-1.46,4.84-1.46s3.46,0.6,4.54,1.79c1.08,1.19,1.62,2.77,1.62,4.75v0.38c0,0.56,0,1.82,0,3.76c0,1.94,0,3.49,0,4.65
		C420.84,39.78,420.84,42.69,420.84,45.67z"/>
	<path class="st0" d="M433.71,18.55c-0.96-0.09-2.04-0.14-3.25-0.14c-1.11,0-2.32,0.05-3.62,0.14c0.09-0.8,0.14-1.82,0.14-3.06
		s-0.05-2.27-0.14-3.1c1.27,0,2.47,0,3.62,0c1.17,0,2.26,0,3.25,0c-0.13,1.11-0.19,2.15-0.19,3.1
		C433.53,16.39,433.59,17.41,433.71,18.55z M433.71,45.67c-1.25-0.19-2.33-0.28-3.24-0.28c-1.07,0-2.27,0.09-3.62,0.28
		c0.09-3.01,0.14-6.99,0.14-11.94c0-5.42-0.05-9.31-0.14-11.66c1.35,0.19,2.52,0.28,3.53,0.28c1.03,0,2.15-0.09,3.34-0.28
		c-0.13,4.45-0.19,8.4-0.19,11.84C433.53,37.77,433.59,41.69,433.71,45.67z"/>
	<path class="st0" d="M453.22,25.18c0,1.47-0.08,2.68-0.24,3.62c-1.13-0.47-1.97-0.7-2.54-0.7c-2.29,0-3.57,1.16-3.85,3.48
		c-0.19,1.63-0.28,3.4-0.28,5.31c0,2.54,0.06,5.47,0.19,8.79c-1.22-0.19-2.33-0.28-3.34-0.28c-0.97,0-2.08,0.09-3.34,0.28
		c0.09-2.66,0.14-6.13,0.14-10.39c0-4.82-0.05-8-0.14-9.54c-0.09-1.72-0.27-2.94-0.52-3.67c1.33,0.13,2.58,0.19,3.76,0.19
		c1.14,0,2.1-0.06,2.87-0.19c0.15,0.82,0.23,1.59,0.23,2.28c0,0.16,0,0.4,0,0.71s0,0.54,0,0.67c0,0.25,0.05,0.38,0.14,0.38
		c0.03,0,0.2-0.28,0.52-0.85c0.66-1.16,1.36-2,2.12-2.54c0.94-0.66,2.08-0.99,3.43-0.99c0.22,0,0.47,0.03,0.75,0.09
		C453.19,22.59,453.22,23.71,453.22,25.18z"/>
	<path class="st0" d="M476.53,38.53c-0.25,2.1-1.13,3.89-2.63,5.36c-1.63,1.57-4.01,2.35-7.14,2.35c-3.57,0-6.28-1.1-8.13-3.29
		c-1.69-2-2.54-4.86-2.54-8.55c0-3.95,0.92-7.07,2.77-9.35c1.88-2.41,4.53-3.62,7.94-3.62c3.26,0,5.73,1.16,7.43,3.48
		c1.44,2.01,2.16,4.62,2.16,7.85c0,0.91-0.05,1.75-0.14,2.54c-3.95-0.19-6.44-0.28-7.47-0.28c-0.56,0-1.52,0-2.87,0
		c-1.35,0.03-2.27,0.05-2.77,0.05c-0.38,0-0.56,0.25-0.56,0.75c0,1.54,0.34,2.84,1.03,3.9c0.75,1.16,1.82,1.74,3.2,1.74
		c1.1,0,1.99-0.32,2.68-0.96c0.69-0.64,1.08-1.43,1.18-2.37C472.35,38.39,474.31,38.53,476.53,38.53z M470.19,30.25
		c0-1.32-0.34-2.36-1.03-3.13c-0.69-0.77-1.58-1.15-2.68-1.15c-1.19,0-2.17,0.45-2.94,1.36c-0.77,0.91-1.15,2.01-1.15,3.29
		c0,0.53,0.16,0.8,0.47,0.8c2.44,0,4.62-0.08,6.53-0.24C469.92,31.16,470.19,30.85,470.19,30.25z"/>
</g>
</svg>
